<svg xmlns="http://www.w3.org/2000/svg" fill="none" viewBox="0 0 24 24" height="24" width="24">
<g opacity="0.32">
<path id="Union" fill="#8fbffa" d="M0 2.571428571428571C0 1.151268 1.151268 0 2.571428571428571 0h6.857142857142857C10.848737142857143 0 12 1.151268 12 2.571428571428571v13.714285714285714c0 1.4201142857142857 -1.1512628571428571 2.571428571428571 -2.571428571428571 2.571428571428571h-6.857142857142857C1.151268 18.857142857142858 0 17.705828571428572 0 16.285714285714285v-13.714285714285714Z" stroke-width="1.7142857142857142" />
<path id="Intersect" fill="#2859c5" fill-rule="evenodd" d="M0 10.809137142857141V8.048005714285715h5.084691428571428v-1.7849142857142855c0 -0.6149657142857142 0.74352 -0.9229542857142857 1.178382857142857 -0.4881085714285714l3.1654799999999996 3.1654799999999996c0.2695714285714286 0.2695714285714286 0.2695714285714286 0.7066457142857143 0 0.9762171428571428L6.263074285714286 13.08216c-0.4348628571428571 0.4348457142857143 -1.178382857142857 0.12685714285714284 -1.178382857142857 -0.4881085714285714v-1.7849142857142855H0Z" clip-rule="evenodd" stroke-width="1.7142857142857142" />
<path id="Rectangle 654" fill="#2859c5" d="M24 21.428571428571427c0 1.4201142857142857 -1.1513142857142855 2.571428571428571 -2.571428571428571 2.571428571428571l-6.857142857142857 0c-1.4201657142857143 0 -2.571428571428571 -1.1513142857142855 -2.571428571428571 -2.571428571428571l0 -13.714285714285714C12 6.2941199999999995 13.151262857142857 5.142857142857142 14.571428571428571 5.142857142857142l6.857142857142857 0c1.4201142857142857 0 2.571428571428571 1.1512628571428571 2.571428571428571 2.571428571428571l0 13.714285714285714Z" stroke-width="1.7142857142857142" />
<path id="Intersect_2" fill="#8fbffa" fill-rule="evenodd" d="m23.99982857142857 15.951994285714285 -5.0845714285714285 0 0 1.7848628571428569c0 0.6150857142857142 -0.7434857142857142 0.9229714285714286 -1.1784 0.4882285714285714L14.571462857142855 15.059537142857142c-0.2695714285714286 -0.2695714285714286 -0.2695714285714286 -0.7066457142857143 0 -0.9762171428571428l3.165394285714285 -3.1654799999999996c0.43491428571428564 -0.4348457142857143 1.1784 -0.12685714285714284 1.1784 0.4881085714285714l0 1.7849142857142855 5.0845714285714285 0v2.7611314285714283Z" clip-rule="evenodd" stroke-width="1.7142857142857142" />
</g>
</svg>