<svg xmlns="http://www.w3.org/2000/svg" fill="none" viewBox="0 0 24 24" height="24" width="24"><g id="map-location--map-location-pin-navigation-gps-travel"><path id="Vector" fill="#8fbffa" d="m7.224874285714285 20.8428 -6.159858857142857 1.5397714285714286c-0.25606285714285715 0.06394285714285713 -0.5273365714285715 0.006514285714285714 -0.7353754285714285 -0.156C0.12160165714285714 22.06422857142857 0 21.81497142857143 0 21.55097142857143V2.4489942857142855C0 2.0556685714285714 0.2676908571428571 1.7128199999999998 0.6492702857142857 1.6174337142857143L7.017102857142857 0.025596171428571426C7.085777142857143 0.008430205714285714 7.155531428571428 0.00000510891428571429 7.224874285714285 0v20.8428Z" stroke-width="1.7142857142857142"></path><path id="Subtract" fill="#2859c5" fill-rule="evenodd" d="M15.18301714285714 10.437754285714284c-1.6045714285714285 1.2495599999999998 -2.6464628571428572 3.196148571428571 -2.784737142857143 5.339982857142857 -0.0029657142857142855 0.04590857142857143 -0.0044399999999999995 0.09192 -0.0044399999999999995 0.13793142857142857 0 0.9435942857142856 0.28184571428571425 1.8911314285714282 0.5987142857142856 2.6911885714285715 0.32938285714285714 0.8315999999999999 0.7668342857142857 1.6750285714285713 1.2199714285714285 2.4562285714285714 0.26456571428571424 0.456 0.5423142857142857 0.9041142857142856 0.81936 1.3316571428571429 -0.005725714285714285 -0.0010285714285714284 -0.011468571428571427 -0.0020571428571428568 -0.017194285714285714 -0.003257142857142857l-7.769142857142857 -1.5539999999999998 -0.02093142857142857 0.005314285714285714V0c0.05852571428571428 -0.00000428691428571429 0.11677714285714286 0.0059920114285714286 0.17381142857142856 0.01779582857142857L15.162051428571429 1.570710857142857 15.18301714285714 1.5654685714285712v8.872285714285715Z" clip-rule="evenodd" stroke-width="1.7142857142857142"></path><path id="Subtract_2" fill="#8fbffa" fill-rule="evenodd" d="M22.408285714285714 0.8571497142857143c0 -0.2639417142857143 -0.12154285714285715 -0.5131645714285714 -0.3296571428571428 -0.6756 -0.20794285714285715 -0.16243405714285714 -0.4793142857142857 -0.21996411428571427 -0.7354285714285713 -0.15595354285714283L15.18330857142857 1.5654685714285712v8.872062857142856c1.1451428571428572 -0.8916685714285715 2.576862857142857 -1.4283257142857142 4.171148571428572 -1.4283257142857142 1.1108571428571428 0 2.144571428571428 0.2829771428571428 3.0538285714285713 0.7768971428571427V0.8571497142857143Z" clip-rule="evenodd" stroke-width="1.7142857142857142"></path><path id="Vector_2" fill="#2859c5" d="M24.000171428571427 15.915668571428572c0 2.2003885714285714 -2.855485714285714 6.0947314285714285 -4.169657142857143 7.770617142857143 -0.3318857142857143 0.42308571428571423 -0.9575999999999999 0.41759999999999997 -1.2816 -0.011314285714285714 -1.2713142857142856 -1.6822285714285712 -4.012217142857143 -5.563885714285714 -4.012217142857143 -7.759302857142856 0.17206285714285713 -2.667617142857143 2.2367999999999997 -4.763605714285714 4.81776 -4.763605714285714 2.408914285714286 0 4.473599999999999 2.0959885714285713 4.645714285714285 4.763605714285714Z" stroke-width="1.7142857142857142"></path><path id="Ellipse 426" fill="#8fbffa" d="M17.639999999999997 15.850285714285715a1.6285714285714283 1.6285714285714283 0 1 0 3.2571428571428567 0 1.6285714285714283 1.6285714285714283 0 1 0 -3.2571428571428567 0" stroke-width="1.7142857142857142"></path></g></svg>