<svg xmlns="http://www.w3.org/2000/svg" fill="none" viewBox="0 0 48 48" height="48" width="48">
<g id="add-circle--button-remove-cross-add-buttons-plus-circle-+-mathematics-math" opacity="0.32">
<path id="Union" fill="#8fbffa" d="M24 0.8571428571428571c-7.172571428571429 0 -13.018285714285714 2.0228571428571427 -17.070857142857143 6.071999999999999C2.88 10.981714285714284 0.8571428571428571 16.827428571428573 0.8571428571428571 24s2.0228571428571427 13.018285714285714 6.071999999999999 17.070857142857143C10.981714285714284 45.12 16.827428571428573 47.14285714285714 24 47.14285714285714s13.018285714285714 -2.0228571428571427 17.070857142857143 -6.071999999999999C45.12 37.01828571428572 47.14285714285714 31.17257142857143 47.14285714285714 24s-2.0228571428571427 -13.018285714285714 -6.071999999999999 -17.070857142857143C37.01828571428572 2.88 31.17257142857143 0.8571428571428571 24 0.8571428571428571Z" stroke-width="3.4285714285714284">
</path>
</g>
<path id="Union_2" fill-rule="evenodd" d="M26.136 13.621714285714285a2.142857142857143 2.142857142857143 0 0 0 -4.285714285714286 0v8.242285714285714h-8.537142857142857a2.142857142857143 2.142857142857143 0 1 0 0 4.285714285714286h8.537142857142857v8.537142857142857a2.142857142857143 2.142857142857143 0 0 0 4.285714285714286 0v-8.537142857142857h8.242285714285714a2.142857142857143 2.142857142857143 0 1 0 0 -4.285714285714286H26.136V13.621714285714285Z" clip-rule="evenodd" stroke-width="3.4285714285714284"></path>
</svg>