<?xml version="1.0" encoding="UTF-8"?>
<!DOCTYPE svg PUBLIC "-//W3C//DTD SVG 1.1//EN" "http://www.w3.org/Graphics/SVG/1.1/DTD/svg11.dtd">
<svg xmlns="http://www.w3.org/2000/svg" version="1.1" width="512px" height="512px" style="shape-rendering:geometricPrecision; text-rendering:geometricPrecision; image-rendering:optimizeQuality; fill-rule:evenodd; clip-rule:evenodd" xmlns:xlink="http://www.w3.org/1999/xlink">
<g><path style="opacity:0.99" fill="#ffffff" d="M 511.5,54.5 C 511.5,160.167 511.5,265.833 511.5,371.5C 506.998,388.288 496.331,399.122 479.5,404C 426.529,405.469 373.529,405.969 320.5,405.5C 320.065,423.494 323.898,440.494 332,456.5C 338.097,465.325 346.597,469.825 357.5,470C 362.596,474.248 363.763,479.415 361,485.5C 359.457,487.378 357.624,488.878 355.5,490C 288.833,490.667 222.167,490.667 155.5,490C 148.586,486.23 146.753,480.73 150,473.5C 151.543,471.622 153.376,470.122 155.5,469C 165.831,469.347 173.664,465.18 179,456.5C 187.102,440.494 190.935,423.494 190.5,405.5C 137.471,405.969 84.4712,405.469 31.5,404C 14.6685,399.122 4.00185,388.288 -0.5,371.5C -0.5,265.833 -0.5,160.167 -0.5,54.5C 4.53999,35.9631 16.54,24.7965 35.5,21C 182.167,20.3333 328.833,20.3333 475.5,21C 494.46,24.7965 506.46,35.9631 511.5,54.5 Z M 42.5,63.5 C 184.5,63.5 326.5,63.5 468.5,63.5C 468.5,148.833 468.5,234.167 468.5,319.5C 326.5,319.5 184.5,319.5 42.5,319.5C 42.5,234.167 42.5,148.833 42.5,63.5 Z M 250.5,341.5 C 267.323,340.826 275.823,348.826 276,365.5C 271.251,380.235 261.418,385.401 246.5,381C 231.849,370.113 230.849,358.113 243.5,345C 245.925,343.787 248.259,342.621 250.5,341.5 Z"/></g>
</svg>
