<?xml version="1.0" encoding="UTF-8"?>
<!DOCTYPE svg PUBLIC "-//W3C//DTD SVG 1.1//EN" "http://www.w3.org/Graphics/SVG/1.1/DTD/svg11.dtd">
<svg xmlns="http://www.w3.org/2000/svg" version="1.1" width="512px" height="512px" style="shape-rendering:geometricPrecision; text-rendering:geometricPrecision; image-rendering:optimizeQuality; fill-rule:evenodd; clip-rule:evenodd" xmlns:xlink="http://www.w3.org/1999/xlink">
<g><path style="opacity:0.983" fill="#ffffff" d="M 94.5,-0.5 C 201.833,-0.5 309.167,-0.5 416.5,-0.5C 432.022,4.52987 440.855,15.1965 443,31.5C 443.667,180.833 443.667,330.167 443,479.5C 440.855,495.803 432.022,506.47 416.5,511.5C 309.167,511.5 201.833,511.5 94.5,511.5C 78.9784,506.47 70.1451,495.803 68,479.5C 67.3333,330.167 67.3333,180.833 68,31.5C 70.1451,15.1965 78.9784,4.52987 94.5,-0.5 Z M 103.5,41.5 C 204.833,41.5 306.167,41.5 407.5,41.5C 407.5,173.833 407.5,306.167 407.5,438.5C 306.167,438.5 204.833,438.5 103.5,438.5C 103.5,306.167 103.5,173.833 103.5,41.5 Z M 252.5,457.5 C 268.28,458.444 275.78,466.778 275,482.5C 268.625,497.432 258.125,501.265 243.5,494C 232.605,482.702 232.938,471.702 244.5,461C 247.158,459.522 249.825,458.355 252.5,457.5 Z"/></g>
</svg>
