<?xml version="1.0" encoding="UTF-8"?>
<!DOCTYPE svg PUBLIC "-//W3C//DTD SVG 1.1//EN" "http://www.w3.org/Graphics/SVG/1.1/DTD/svg11.dtd">
<svg xmlns="http://www.w3.org/2000/svg" version="1.1" width="512px" height="512px" style="shape-rendering:geometricPrecision; text-rendering:geometricPrecision; image-rendering:optimizeQuality; fill-rule:evenodd; clip-rule:evenodd" xmlns:xlink="http://www.w3.org/1999/xlink">
<g><path style="opacity:0.979" fill="#ffffff" d="M 159.5,-0.5 C 223.833,-0.5 288.167,-0.5 352.5,-0.5C 374.276,5.10624 388.442,18.7729 395,40.5C 396.157,111.637 396.657,182.803 396.5,254C 396.654,325.856 396.154,397.69 395,469.5C 388.797,492.204 374.297,506.204 351.5,511.5C 287.167,511.5 222.833,511.5 158.5,511.5C 136.712,505.881 122.545,492.214 116,470.5C 114.843,398.863 114.343,327.197 114.5,255.5C 114.343,183.803 114.843,112.137 116,40.5C 122.642,18.3543 137.142,4.68767 159.5,-0.5 Z M 231.5,31.5 C 247.837,31.3334 264.17,31.5001 280.5,32C 289.373,34.5906 290.706,39.2573 284.5,46C 283.167,46.3333 281.833,46.6667 280.5,47C 264.167,47.6667 247.833,47.6667 231.5,47C 224.747,45.6547 222.58,41.8214 225,35.5C 226.792,33.372 228.958,32.0387 231.5,31.5 Z M 203.5,32.5 C 212.401,32.2313 215.234,36.2313 212,44.5C 207.755,48.4063 203.755,48.0729 200,43.5C 198.663,38.9159 199.829,35.2493 203.5,32.5 Z M 143.5,75.5 C 219.167,75.5 294.833,75.5 370.5,75.5C 370.5,194.167 370.5,312.833 370.5,431.5C 294.833,431.5 219.167,431.5 143.5,431.5C 143.5,312.833 143.5,194.167 143.5,75.5 Z M 249.5,448.5 C 269.182,448.346 278.349,458.013 277,477.5C 271.712,491.225 261.879,496.725 247.5,494C 231.835,486.343 227.668,474.509 235,458.5C 239.023,453.758 243.857,450.425 249.5,448.5 Z"/></g>
</svg>
